<svg id="Layer_1" data-name="Layer 1" xmlns="http://www.w3.org/2000/svg" viewBox="0 0 64.81 79.86"><defs><style>.cls-1,.cls-2{fill:#866f9b;stroke:#866f9b;stroke-miterlimit:10;}.cls-2{stroke-width:3px;}</style></defs><title>bug</title><path class="cls-1" d="M63.63,27.36c0,2.86-6.1-.82-13.63-.82s-13.63,3.68-13.63.82S42.47,16.19,50,16.19,63.63,24.5,63.63,27.36Z" transform="translate(-17.59 -10.07)"/><circle class="cls-1" cx="16.64" cy="3.58" r="3.08"/><line class="cls-2" x1="16.64" y1="3.58" x2="25.45" y2="12.25"/><circle class="cls-1" cx="48.18" cy="3.58" r="3.08"/><line class="cls-2" x1="48.18" y1="3.58" x2="39.37" y2="12.25"/><path class="cls-1" d="M18.09,59.83A29.61,29.61,0,0,0,47.7,89.43V30.22A29.61,29.61,0,0,0,18.09,59.83Zm9.31,1.76a4.19,4.19,0,1,1,4.19-4.19A4.19,4.19,0,0,1,27.4,61.59ZM37.31,38.1a4.19,4.19,0,1,1-4.18,4.19A4.2,4.2,0,0,1,37.31,38.1ZM38,76.21A4.19,4.19,0,1,1,42.16,72,4.18,4.18,0,0,1,38,76.21Z" transform="translate(-17.59 -10.07)"/><path class="cls-1" d="M52.3,30.22V89.43a29.61,29.61,0,1,0,0-59.21ZM68.41,57.4a4.19,4.19,0,1,1,4.19,4.19A4.19,4.19,0,0,1,68.41,57.4ZM66.87,42.29a4.19,4.19,0,1,1-4.18-4.19A4.18,4.18,0,0,1,66.87,42.29ZM57.84,72A4.19,4.19,0,1,1,62,76.21,4.19,4.19,0,0,1,57.84,72Z" transform="translate(-17.59 -10.07)"/></svg>