<svg id="Layer_1" data-name="Layer 1" xmlns="http://www.w3.org/2000/svg" viewBox="0 0 85.47 50.71"><defs><style>.cls-1{fill:#9b89af;}.cls-1,.cls-2{stroke:#866f9b;stroke-miterlimit:10;}.cls-2{fill:#866f9b;}</style></defs><title>fish</title><ellipse class="cls-1" cx="46.37" cy="10.3" rx="18.17" ry="9.8"/><ellipse class="cls-1" cx="46.37" cy="40.4" rx="18.17" ry="9.8"/><path class="cls-2" d="M87.57,50.73c4.81-2.69,7.63-6.47,6.57-9.29-1.29-3.47-7.9-4.19-14.76-1.62a21.37,21.37,0,0,0-8.09,5.11c-4.8-6.41-16.2-13.67-29.48-14.53C24.22,29.26,9.89,34.47,9.89,45.66S24.18,70.92,41.81,70.92c14,0,25.88-5.72,30.18-13.68a22.47,22.47,0,0,0,7.39,4.41c6.86,2.56,13.47,1.84,14.76-1.62C95.2,57.2,92.38,53.42,87.57,50.73Zm-63-3.29a3.75,3.75,0,1,1,3.74-3.74A3.75,3.75,0,0,1,24.54,47.44Z" transform="translate(-9.39 -24.24)"/></svg>