<svg id="Layer_1" data-name="Layer 1" xmlns="http://www.w3.org/2000/svg" viewBox="0 0 80.11 80.52"><defs><style>.cls-1{fill:#866f9b;}.cls-1,.cls-2{stroke:#866f9b;stroke-miterlimit:10;}.cls-2{fill:#9b89af;}</style></defs><title>sea</title><path class="cls-1" d="M87.31,69.69c-1.1,2.09-28-7-30.2-5.23s-11,28-14.3,27.11-2-29-4.37-30.34S8.24,59.17,8.24,56,35.06,44.79,35.75,42.48s-7.1-28.85-4.36-30.34,18.4,21.56,21.36,22S78.48,18.75,80.25,20.6,65.73,45.41,66,47.71,88.41,67.59,87.31,69.69Z" transform="translate(-7.74 -11.57)"/><circle class="cls-2" cx="37.8" cy="29.48" r="2.26"/><circle class="cls-2" cx="33.72" cy="21.55" r="1.82"/><circle class="cls-2" cx="29.65" cy="14.06" r="1.28"/><circle class="cls-2" cx="37.8" cy="29.48" r="2.26"/><circle class="cls-2" cx="33.72" cy="21.55" r="1.82"/><circle class="cls-2" cx="29.65" cy="14.06" r="1.28"/><circle class="cls-2" cx="47.55" cy="31.54" r="2.26"/><circle class="cls-2" cx="54.26" cy="25.67" r="1.82"/><circle class="cls-2" cx="60.54" cy="19.9" r="1.28"/><circle class="cls-2" cx="47.55" cy="31.54" r="2.26"/><circle class="cls-2" cx="54.26" cy="25.67" r="1.82"/><circle class="cls-2" cx="60.54" cy="19.9" r="1.28"/><circle class="cls-2" cx="48.93" cy="40.87" r="2.26"/><circle class="cls-2" cx="56.74" cy="45.16" r="1.82"/><circle class="cls-2" cx="64.31" cy="49.09" r="1.28"/><circle class="cls-2" cx="48.93" cy="40.87" r="2.26"/><circle class="cls-2" cx="56.74" cy="45.16" r="1.82"/><circle class="cls-2" cx="64.31" cy="49.09" r="1.28"/><circle class="cls-2" cx="40.59" cy="45.64" r="2.26"/><circle class="cls-2" cx="39.23" cy="54.45" r="1.82"/><circle class="cls-2" cx="38.12" cy="62.9" r="1.28"/><circle class="cls-2" cx="33.19" cy="39.54" r="2.26"/><circle class="cls-2" cx="24.44" cy="41.27" r="1.82"/><circle class="cls-2" cx="16.12" cy="43.12" r="1.28"/></svg>